<svg xmlns="http://www.w3.org/2000/svg" xmlns:xlink="http://www.w3.org/1999/xlink" viewBox="0 0 510.42 127.51"><defs><style>.cls-1{stroke:#fff;stroke-miterlimit:10;fill:url(#linear-gradient);}.cls-2{fill:#fff;}.cls-3{fill:#231f20;}</style><linearGradient id="linear-gradient" x1="0.5" y1="90.37" x2="509.92" y2="90.37" gradientUnits="userSpaceOnUse"><stop offset="0" stop-color="#b0d898"/><stop offset="0.46" stop-color="#9c9ecf"/><stop offset="1" stop-color="#fcc29c"/></linearGradient></defs><title>Asset 6wifi-legend</title><g id="Layer_2" data-name="Layer 2"><g id="Layer_1-2" data-name="Layer 1"><rect class="cls-1" x="0.5" y="53.72" width="509.42" height="73.28"/><path class="cls-2" d="M23.82,74.59a12.4,12.4,0,1,1,0,24.79H16.64V74.59Zm-.66,19.75c4.18,0,7-3.19,7.06-7.34s-2.85-7.36-7.06-7.36h-.87v14.7Z"/><path class="cls-2" d="M43.25,92.41a3.15,3.15,0,0,0,3.33,3.19,4.22,4.22,0,0,0,3.76-1.72l3.85,1.93c-1.74,2.91-4.57,4-8,4a8.17,8.17,0,1,1,0-16.32c4.69,0,8.27,2.77,8.27,8.18a5.54,5.54,0,0,1,0,.72Zm6-3A2.74,2.74,0,0,0,46.34,87a2.65,2.65,0,0,0-2.94,2.49Z"/><path class="cls-2" d="M68.72,84.72,67,88.2a8.67,8.67,0,0,0-3.42-1c-1.18,0-1.66.21-1.66.93s1.09,1,2.41,1.48c2,.63,4.69,1.77,4.69,4.92,0,4.54-4.15,5.26-7.31,5.26a9.25,9.25,0,0,1-6-2.07l2.17-3.64S60,95.9,61.71,95.9c.75,0,1.66-.09,1.66-1.11s-1.69-1.21-3.43-2.11c-1.56-.81-3.13-1.89-3.13-4.21,0-3.15,2.68-5,6.74-5A11.75,11.75,0,0,1,68.72,84.72Z"/><path class="cls-2" d="M81.92,91.33l8,8H83.12L77,93.22v6.16H71.64V73.53H77V89.34L82.34,84h6.91Z"/><path class="cls-2" d="M92,78.22h5.32V84h3.24v4H97.29v4.9c0,1.44.36,2.13,1.2,2.13a2.51,2.51,0,0,0,1.32-.48l1.33,4.3a8.86,8.86,0,0,1-3.91,1C93,99.83,92,96.68,92,93.94V88H89.74V84H92Z"/><path class="cls-2" d="M111.12,83.51c5.11,0,9.2,3.37,9.2,8.18s-3.88,8.14-9.2,8.14c-5.56,0-9.29-3.39-9.29-8.14S105.92,83.51,111.12,83.51Zm0,11.79a3.47,3.47,0,0,0,3.58-3.61,3.6,3.6,0,1,0-7.19,0A3.45,3.45,0,0,0,111.09,95.3Z"/><path class="cls-2" d="M133.13,99.83a7,7,0,0,1-5-1.92v9.29h-5.32V84H128v1.74h.06a6.86,6.86,0,0,1,5-2.2c4.51,0,7.67,3.64,7.67,8.15S137.64,99.83,133.13,99.83Zm-1.59-11.78A3.47,3.47,0,0,0,128,91.66a3.6,3.6,0,1,0,7.19,0A3.44,3.44,0,0,0,131.54,88.05Z"/><path class="cls-2" d="M220.23,77.82a12.56,12.56,0,0,1,12.48,12.83c0,7.25-5.35,12.87-12.48,12.87-7.33,0-12.5-5.62-12.5-12.87A12.62,12.62,0,0,1,220.23,77.82Zm0,20.23c4.51,0,6.38-3.7,6.38-7.4s-2-7.39-6.38-7.39-6.4,3.7-6.4,7.39S215.6,98.05,220.23,98.05Z"/><path class="cls-2" d="M236.12,81.91h5.32v5.74h3.24v4.06h-3.24v4.9c0,1.44.36,2.13,1.2,2.13a2.51,2.51,0,0,0,1.32-.48l1.33,4.29a8.79,8.79,0,0,1-3.91,1c-4.24,0-5.26-3.16-5.26-5.89V91.71h-2.23V87.65h2.23Z"/><path class="cls-2" d="M247.1,77.22h5.31v12h.06a6.43,6.43,0,0,1,4.42-2.08c2.83,0,6.77,1.42,6.77,5.72v10.16h-5.32V94.35a2.86,2.86,0,0,0-2.77-3,3.29,3.29,0,0,0-3.16,3v8.72H247.1Z"/><path class="cls-2" d="M271.39,96.09a3.16,3.16,0,0,0,3.34,3.19,4.25,4.25,0,0,0,3.76-1.71l3.84,1.92c-1.74,2.92-4.57,4-8,4a8.17,8.17,0,1,1,0-16.33c4.69,0,8.26,2.77,8.26,8.18a5.54,5.54,0,0,1,0,.72Zm6-2.94a2.73,2.73,0,0,0-2.91-2.5,2.66,2.66,0,0,0-2.95,2.5Z"/><path class="cls-2" d="M285.05,87.65h5.32v2.22h.06a6,6,0,0,1,4.72-2.68,6.33,6.33,0,0,1,3.36,1l-2.22,4.51a4.5,4.5,0,0,0-2.77-.84A3.19,3.19,0,0,0,290.37,95v8.12h-5.32Z"/><path class="cls-2" d="M407,88.37h-.15l-5.08,14.55h-3.36l-5.09-14.55h-.14L392,103.07h-5.65l2.23-24.8h6l5.5,14.31,5.5-14.31h6l2.22,24.8H408.2Z"/><path class="cls-2" d="M424.33,87.19c5.11,0,9.2,3.37,9.2,8.18s-3.88,8.15-9.2,8.15c-5.56,0-9.29-3.4-9.29-8.15S419.13,87.19,424.33,87.19Zm0,11.79a3.47,3.47,0,0,0,3.58-3.61,3.6,3.6,0,1,0-7.19,0A3.44,3.44,0,0,0,424.3,99Z"/><path class="cls-2" d="M446.4,103.52a6.86,6.86,0,0,1-5-2.2h-.06v1.75H436V77.22h5.32v11.9a7,7,0,0,1,5-1.93c4.51,0,7.67,3.67,7.67,8.18S450.91,103.52,446.4,103.52Zm-1.59-11.79a3.53,3.53,0,0,0-3.58,3.64,3.6,3.6,0,1,0,7.19,0A3.54,3.54,0,0,0,444.81,91.73Z"/><path class="cls-2" d="M462.46,81.27a3.16,3.16,0,1,1-3.15-3.15A3.15,3.15,0,0,1,462.46,81.27Zm-5.89,21.8h5.32V87.65h-5.32Z"/><path class="cls-2" d="M465.66,77.22H471v25.85h-5.31Z"/><path class="cls-2" d="M479,96.09a3.16,3.16,0,0,0,3.34,3.19,4.24,4.24,0,0,0,3.76-1.71L490,99.49c-1.75,2.92-4.57,4-8,4a8.17,8.17,0,1,1,0-16.33c4.69,0,8.26,2.77,8.26,8.18,0,.21,0,.54,0,.72Zm6-2.94a2.75,2.75,0,0,0-2.92-2.5,2.67,2.67,0,0,0-3,2.5Z"/><path class="cls-3" d="M18.28,12.72,14.2,27H7.75L.5,1.54H7L11.3,19h.16L16.09,1.54h4.38L25.1,19h.15L29.6,1.54H36L28.77,27H22.35Z"/><path class="cls-3" d="M43.48,4.63a3.24,3.24,0,1,1-3.24-3.24A3.24,3.24,0,0,1,43.48,4.63ZM37.43,27h5.46V11.17H37.43Z"/><path class="cls-3" d="M47.68,7.81C47.71,3.18,49.94,0,53.89,0a7.56,7.56,0,0,1,4.5,1.42L56.48,5.28a3.63,3.63,0,0,0-1.64-.43c-1.39,0-1.7.92-1.7,3.11v3.21h3.65v4.17H53.14V27H47.68V15.34H45.4V11.17h2.28Z"/><path class="cls-3" d="M64.38,4.63a3.24,3.24,0,1,1-3.24-3.24A3.24,3.24,0,0,1,64.38,4.63ZM58.34,27H63.8V11.17H58.34Z"/><path class="cls-3" d="M76.09.46h5.46V27H76.09Z"/><path class="cls-3" d="M93.66,10.71c5.24,0,9.44,3.46,9.44,8.39s-4,8.37-9.44,8.37c-5.71,0-9.54-3.49-9.54-8.37S88.32,10.71,93.66,10.71Zm0,12.1A3.56,3.56,0,0,0,97.3,19.1a3.69,3.69,0,1,0-7.38,0A3.54,3.54,0,0,0,93.63,22.81Z"/><path class="cls-3" d="M109.44,28.7a4.76,4.76,0,0,0,4.29,2,3.65,3.65,0,0,0,3.86-3.7V25.86c-1.18,1.3-3,1.61-5.19,1.61-4.63,0-7.87-3.74-7.87-8.37s3.24-8.39,7.87-8.39a7.23,7.23,0,0,1,5.09,1.88h.1V11.17h5.46V27.44c0,5.31-3.92,8.05-9.32,8.05-3.3,0-7.1-.74-8.77-4.6Zm4.6-5.89a3.56,3.56,0,0,0,3.67-3.71,3.69,3.69,0,1,0-7.38,0A3.54,3.54,0,0,0,114,22.81Z"/><path class="cls-3" d="M132.81,4.63a3.24,3.24,0,1,1-3.24-3.24A3.24,3.24,0,0,1,132.81,4.63Zm-6,22.37h5.46V11.17h-5.46Z"/><path class="cls-3" d="M136.09,11.17h5.46v1.67h.06a6.55,6.55,0,0,1,4.54-2.13c2.9,0,6.95,1.45,6.95,5.86V27h-5.47V18.05A2.92,2.92,0,0,0,144.79,15a3.37,3.37,0,0,0-3.24,3.08v9h-5.46Z"/><path class="cls-3" d="M171.66,10.71a7.24,7.24,0,0,1,5.19,2V.46h5.46V27h-5.4V25.21h-.06a7,7,0,0,1-5.19,2.26c-4.63,0-7.87-3.74-7.87-8.37S167,10.71,171.66,10.71Zm1.64,12.1A3.56,3.56,0,0,0,177,19.1a3.69,3.69,0,1,0-7.38,0A3.54,3.54,0,0,0,173.3,22.81Z"/><path class="cls-3" d="M190.56,19.85A3.24,3.24,0,0,0,194,23.12a4.32,4.32,0,0,0,3.85-1.76l3.95,2c-1.78,3-4.69,4.14-8.2,4.14a8.57,8.57,0,0,1-8.71-8.37,8.58,8.58,0,0,1,8.71-8.39c4.81,0,8.48,2.84,8.48,8.39a6,6,0,0,1,0,.75Zm6.17-3a2.8,2.8,0,0,0-3-2.56,2.74,2.74,0,0,0-3,2.56Z"/><path class="cls-3" d="M212.36,19.78l3.86-8.61h6.48L214.21,27h-3.7L202,11.17h6.48Z"/><path class="cls-3" d="M230,4.63a3.24,3.24,0,1,1-3.24-3.24A3.24,3.24,0,0,1,230,4.63ZM223.94,27h5.47V11.17h-5.47Z"/><path class="cls-3" d="M237.93,19.07A3.84,3.84,0,0,0,241.69,23a4.84,4.84,0,0,0,2.66-.74l1.85,3.8a9,9,0,0,1-5.31,1.42c-4.57,0-8.76-3.71-8.76-8.33a9.11,9.11,0,0,1,14.07-7l-1.85,3.74a4.79,4.79,0,0,0-2.66-.75A3.83,3.83,0,0,0,237.93,19.07Z"/><path class="cls-3" d="M253,19.85a3.24,3.24,0,0,0,3.42,3.27,4.35,4.35,0,0,0,3.86-1.76l3.95,2c-1.79,3-4.69,4.14-8.21,4.14a8.57,8.57,0,0,1-8.7-8.37,8.57,8.57,0,0,1,8.7-8.39c4.82,0,8.49,2.84,8.49,8.39a6,6,0,0,1,0,.75Zm6.17-3a2.81,2.81,0,0,0-3-2.56,2.73,2.73,0,0,0-3,2.56Z"/><path class="cls-3" d="M276.41,5.28h5.46v5.89h3.33v4.17h-3.33v5c0,1.48.37,2.19,1.24,2.19a2.55,2.55,0,0,0,1.35-.49l1.36,4.41a9,9,0,0,1-4,1c-4.35,0-5.4-3.24-5.4-6V15.34h-2.29V11.17h2.29Z"/><path class="cls-3" d="M306,11.17,293.54,35h-6.29l5.46-10.49-7.5-13.37h6.3l4.41,8.12,3.77-8.12Z"/><path class="cls-3" d="M317.87,27.47a7.18,7.18,0,0,1-5.18-2V35h-5.46V11.17h5.4V13h.06a7,7,0,0,1,5.18-2.25c4.63,0,7.87,3.73,7.87,8.36S322.5,27.47,317.87,27.47Zm-1.63-12.1a3.55,3.55,0,0,0-3.67,3.7,3.69,3.69,0,1,0,7.37,0A3.53,3.53,0,0,0,316.24,15.37Z"/><path class="cls-3" d="M332.85,19.85a3.24,3.24,0,0,0,3.43,3.27,4.35,4.35,0,0,0,3.86-1.76l3.95,2c-1.79,3-4.69,4.14-8.21,4.14a8.56,8.56,0,0,1-8.7-8.37,8.57,8.57,0,0,1,8.7-8.39c4.81,0,8.49,2.84,8.49,8.39a6,6,0,0,1,0,.75Zm6.18-3a2.81,2.81,0,0,0-3-2.56,2.72,2.72,0,0,0-3,2.56Z"/><path class="cls-3" d="M359,11.94l-1.79,3.58a9,9,0,0,0-3.52-1c-1.21,0-1.7.21-1.7,1s1.11,1.08,2.47,1.52c2.1.64,4.81,1.82,4.81,5.06,0,4.66-4.26,5.4-7.5,5.4a9.49,9.49,0,0,1-6.11-2.13l2.22-3.74s2.17,1.83,3.92,1.83c.78,0,1.7-.1,1.7-1.15s-1.73-1.23-3.52-2.16c-1.6-.83-3.21-1.94-3.21-4.32,0-3.24,2.75-5.09,6.92-5.09A12.16,12.16,0,0,1,359,11.94Z"/></g></g></svg>